#define adjust_width 16
#define adjust_height 16
static unsigned char adjust_bits[] = {
   0x00, 0x00, 0x00, 0x00, 0xc0, 0x00, 0xc0, 0x01, 0x60, 0x03, 0x60, 0x03,
   0x30, 0x06, 0x30, 0x06, 0x18, 0x0c, 0xf8, 0x0f, 0xfc, 0x1f, 0x0c, 0x18,
   0x06, 0x30, 0x06, 0x30, 0x00, 0x00, 0x00, 0x00};
