#define full-matrix_width 16
#define full-matrix_height 16
static char full-matrix_bits[] = {
   0xff, 0xff, 0x00, 0x00, 0xff, 0xff, 0x00, 0x00, 0x44, 0x04, 0x00, 0x00,
   0x44, 0x04, 0x00, 0x00, 0x44, 0x04, 0x00, 0x00, 0x00, 0x00, 0x00, 0x00,
   0xff, 0xff, 0x00, 0x00, 0x00, 0x00, 0x00, 0x00};
