#define batch-runs_width 16
#define batch-runs_height 16
static unsigned char batch-runs_bits[] = {
   0xf8, 0x1f, 0x08, 0x10, 0xe8, 0x13, 0x08, 0x10, 0xe8, 0x13, 0x08, 0x10,
   0xe8, 0x13, 0x08, 0x10, 0xe8, 0x13, 0x08, 0x10, 0x88, 0x10, 0x08, 0x10,
   0x88, 0x10, 0x08, 0x10, 0x08, 0x10, 0xf8, 0x1f};
