#define batch-runs-stop_width 16
#define batch-runs-stop_height 16
static unsigned char batch-runs-stop_bits[] = {
   0x06, 0xf8, 0x89, 0x88, 0x09, 0xa9, 0x8e, 0x88, 0x50, 0xa8, 0x20, 0x88,
   0x50, 0xa8, 0x88, 0x88, 0x06, 0x89, 0x00, 0xfa, 0x00, 0x02, 0x00, 0x06,
   0x00, 0x0a, 0x00, 0x12, 0x00, 0x22, 0x00, 0xe6};
