#define constant-force-locii_width 16
#define constant-force-locii_height 16
static unsigned char constant-force-locii_bits[] = {
   0x00, 0x00, 0x0c, 0x0c, 0x1e, 0x7e, 0x32, 0xc2, 0x62, 0x82, 0xc2, 0x86,
   0x86, 0x9d, 0x04, 0xf2, 0x0c, 0x0c, 0x38, 0x30, 0xe0, 0x3f, 0x0f, 0x00,
   0x79, 0x00, 0x83, 0x07, 0x0e, 0x7c, 0xf8, 0x7f};
