#define dead-sparrow_width 16
#define dead-sparrow_height 16
static unsigned char dead-sparrow_bits[] = {
   0x00, 0x00, 0x00, 0x00, 0x88, 0x00, 0x50, 0x00, 0x20, 0x00, 0x20, 0x00,
   0x20, 0x40, 0xf0, 0xaf, 0x1f, 0xb8, 0x04, 0x80, 0x18, 0xf8, 0xf0, 0x0f,
   0x00, 0x00, 0x00, 0x00, 0x00, 0x00, 0x00, 0x00};
