#define disconnect_width 16
#define disconnect_height 16
static unsigned char disconnect_bits[] = {
   0x00, 0x00, 0x00, 0x00, 0xf8, 0x01, 0xf8, 0x03, 0x18, 0x06, 0x18, 0x06,
   0x18, 0x06, 0x18, 0x06, 0x18, 0x06, 0x18, 0x06, 0x18, 0x06, 0x18, 0x06,
   0xf8, 0x03, 0xf8, 0x01, 0x00, 0x00, 0x00, 0x00};
