#define dont-care_width 16
#define dont-care_height 16
static char dont-care_bits[] = {
   0x00, 0x00, 0x00, 0x00, 0xf0, 0x0f, 0x08, 0x08, 0x00, 0x10, 0x00, 0x10,
   0x00, 0x10, 0x00, 0x18, 0x80, 0x08, 0x80, 0x07, 0x80, 0x00, 0x80, 0x00,
   0x80, 0x00, 0x00, 0x00, 0x80, 0x00, 0x00, 0x00};
