#define epidemic_width 16
#define epidemic_height 16
static unsigned char epidemic_bits[] = {
   0xff, 0x03, 0xff, 0x03, 0x03, 0x00, 0x03, 0x00, 0x03, 0x00, 0x03, 0x00,
   0xff, 0x00, 0xff, 0x00, 0x03, 0x00, 0x03, 0x00, 0x03, 0x00, 0x03, 0x00,
   0x03, 0x00, 0x03, 0x00, 0xff, 0x03, 0xff, 0x03};
