#define foo_width 16
#define foo_height 16
static unsigned char foo_bits[] = {
   0x0f, 0x00, 0x09, 0x00, 0x09, 0x20, 0x0f, 0x10, 0x01, 0x10, 0x41, 0x09,
   0x41, 0x05, 0x80, 0x0a, 0xb8, 0x06, 0xc0, 0x03, 0xe0, 0x3c, 0x50, 0xc1,
   0x28, 0x01, 0x26, 0x02, 0x01, 0x02, 0x00, 0x04};
