#define error-lines_width 16
#define error-lines_height 16
static unsigned char error-lines_bits[] = {
   0x20, 0x00, 0x40, 0x80, 0x40, 0x64, 0x80, 0x14, 0x83, 0x0a, 0x3c, 0x07,
   0xc0, 0x03, 0x60, 0x1d, 0x50, 0x01, 0xa0, 0x02, 0x90, 0x02, 0x88, 0x04,
   0x88, 0x04, 0x44, 0x04, 0x40, 0x08, 0x40, 0x08};
