#define extract-hi-table_width 16
#define extract-hi-table_height 16
static unsigned char extract-hi-table_bits[] = {
   0xff, 0xff, 0x01, 0x80, 0x55, 0x95, 0x55, 0x95, 0x55, 0x95, 0x55, 0x95,
   0x55, 0x95, 0x55, 0x95, 0x55, 0x95, 0x55, 0x95, 0x55, 0x95, 0x55, 0x95,
   0x55, 0x95, 0x55, 0x95, 0x01, 0x80, 0xff, 0xff};
