#define fill-window_width 16
#define fill-window_height 16
static unsigned char fill-window_bits[] = {
   0xff, 0xff, 0x01, 0x80, 0x1d, 0xb8, 0x0d, 0xb0, 0x15, 0xa8, 0x21, 0x84,
   0x01, 0x80, 0x01, 0x80, 0x01, 0x80, 0x01, 0x80, 0x21, 0x84, 0x15, 0xa8,
   0x0d, 0xb0, 0x1d, 0xb8, 0x01, 0x80, 0xff, 0xff};
