#define flipY_width 16
#define flipY_height 16
static unsigned char flipY_bits[] = {
   0x80, 0x01, 0xc0, 0x03, 0xe0, 0x07, 0xb0, 0x0d, 0x90, 0x09, 0x80, 0x01,
   0x80, 0x01, 0x00, 0x00, 0x00, 0x00, 0x80, 0x01, 0x80, 0x01, 0x90, 0x09,
   0xb0, 0x0d, 0xe0, 0x07, 0xc0, 0x03, 0x80, 0x01};
