#define flip_width 16
#define flip_height 16
static char flip_bits[] = {
   0x00, 0x00, 0x00, 0x00, 0x00, 0x00, 0x18, 0x18, 0x0c, 0x30, 0x06, 0x60,
   0x7f, 0xfe, 0x7f, 0xfe, 0x06, 0x60, 0x0c, 0x30, 0x18, 0x18, 0x00, 0x00,
   0x00, 0x00, 0x00, 0x00, 0x00, 0x00, 0x00, 0x00};
