#define freeze_width 16
#define freeze_height 16
static unsigned char freeze_bits[] = {
   0x00, 0x00, 0x00, 0x00, 0xf0, 0x07, 0xf0, 0x07, 0x30, 0x00, 0x30, 0x00,
   0xf0, 0x03, 0xf0, 0x03, 0x30, 0x00, 0x30, 0x00, 0x30, 0x00, 0x30, 0x00,
   0x30, 0x00, 0x30, 0x00, 0x30, 0x00, 0x00, 0x00};
