#define graph_width 16
#define graph_height 16
static char graph_bits[] = {
   0x03, 0x00, 0x02, 0x00, 0x02, 0x00, 0x02, 0x00, 0x02, 0xc0, 0x02, 0x60,
   0xc2, 0x38, 0x23, 0x0f, 0x12, 0x00, 0x12, 0x00, 0x02, 0x00, 0x02, 0x00,
   0x02, 0x00, 0x02, 0x00, 0xff, 0xff, 0x02, 0x81};
