#define halt_width 16
#define halt_height 16
static char halt_bits[] = {
   0x06, 0x00, 0x89, 0x00, 0x09, 0x01, 0x8e, 0x00, 0x50, 0x00, 0x20, 0x00,
   0x50, 0x00, 0x88, 0x00, 0x06, 0x01, 0x00, 0x02, 0x00, 0x02, 0x00, 0x06,
   0x00, 0x0a, 0x00, 0x12, 0x00, 0x22, 0x00, 0xe6};
