#define hi-and-round_width 16
#define hi-and-round_height 16
static char hi-and-round_bits[] = {
   0x00, 0x00, 0x22, 0x01, 0x22, 0x01, 0x22, 0x01, 0x22, 0x01, 0x3e, 0x31,
   0x22, 0x49, 0x22, 0x49, 0x22, 0x31, 0x22, 0x01, 0x00, 0x00, 0x00, 0x00,
   0x00, 0x00, 0x00, 0x00, 0x00, 0x00, 0x00, 0x00};
