#define hi_width 16
#define hi_height 16
static char hi_bits[] = {
   0x00, 0x00, 0x22, 0x01, 0x22, 0x01, 0x22, 0x01, 0x22, 0x01, 0x3e, 0x01,
   0x22, 0x01, 0x22, 0x01, 0x22, 0x01, 0x22, 0x01, 0x00, 0x00, 0x00, 0x00,
   0x00, 0x00, 0x00, 0x00, 0x00, 0x00, 0x00, 0x00};
