#define hillclimb-new-window_width 16
#define hillclimb-new-window_height 16
static char hillclimb-new-window_bits[] = {
   0xff, 0xff, 0x01, 0x88, 0x01, 0xbc, 0x01, 0xa4, 0x01, 0xe4, 0x01, 0xc2,
   0x01, 0xc2, 0x01, 0xc3, 0x01, 0x81, 0x01, 0x81, 0x0f, 0x81, 0x93, 0x81,
   0xa1, 0x80, 0xe1, 0x80, 0x01, 0x80, 0xff, 0xff};
