#define hillclimb_width 16
#define hillclimb_height 16
static char hillclimb_bits[] = {
   0x00, 0x00, 0x00, 0x08, 0x00, 0x3c, 0x00, 0x24, 0x00, 0x64, 0x00, 0x42,
   0x00, 0x42, 0x00, 0xc3, 0x00, 0x81, 0x00, 0x81, 0x0e, 0x01, 0x93, 0x01,
   0xa1, 0x00, 0xe0, 0x00, 0x00, 0x00, 0x00, 0x00};
