#define lapedes_width 16
#define lapedes_height 16
static char lapedes_bits[] = {
   0x00, 0x00, 0x0c, 0x00, 0x0c, 0x00, 0x0c, 0x00, 0x0c, 0x00, 0x0c, 0x00,
   0x0c, 0x00, 0x0c, 0x00, 0x0c, 0x00, 0x0c, 0x00, 0x0c, 0x00, 0x0c, 0x00,
   0xfc, 0x1f, 0xfc, 0x1f, 0x00, 0x00, 0x00, 0x00};
