#define landscape_width 16
#define landscape_height 16
static unsigned char landscape_bits[] = {
   0x00, 0x00, 0x00, 0x00, 0x92, 0x39, 0x56, 0x12, 0x5a, 0x12, 0x92, 0x11,
   0x00, 0x00, 0x22, 0x00, 0x94, 0x3b, 0x88, 0x10, 0x88, 0x13, 0x88, 0x10,
   0x88, 0x13, 0x00, 0x00, 0x00, 0x00, 0x00, 0x00};
