#define logx_width 16
#define logx_height 16
static char logx_bits[] = {
   0x01, 0x00, 0x01, 0x00, 0x01, 0x00, 0x01, 0x00, 0x01, 0x00, 0x01, 0x00,
   0x01, 0x00, 0x01, 0x00, 0x19, 0x93, 0xa5, 0x64, 0xa5, 0x64, 0x19, 0x97,
   0x00, 0x04, 0x00, 0x04, 0x80, 0x04, 0x00, 0x03};
