#define logy_width 16
#define logy_height 16
static char logy_bits[] = {
   0x01, 0x00, 0x01, 0x00, 0x01, 0x00, 0x01, 0x00, 0x01, 0x00, 0x01, 0x00,
   0x01, 0x00, 0x01, 0x00, 0x19, 0x93, 0xa5, 0x94, 0xa5, 0x94, 0x19, 0xe7,
   0x00, 0x84, 0x00, 0x84, 0x80, 0x94, 0x00, 0x63};
