#define m-b-moves_width 16
#define m-b-moves_height 16
static char m-b-moves_bits[] = {
   0x91, 0x00, 0x9b, 0x0e, 0xd5, 0x0a, 0x51, 0x0e, 0x51, 0x0a, 0x40, 0x0e,
   0x00, 0x00, 0x30, 0x06, 0x70, 0x07, 0xd0, 0x05, 0x90, 0x04, 0x10, 0x04,
   0x10, 0x04, 0x10, 0x04, 0x10, 0x04, 0x00, 0x00};
