#define m-b-basis_width 16
#define m-b-basis_height 16
static char m-b-basis_bits[] = {
   0x91, 0x00, 0x9b, 0x0e, 0xd5, 0x0a, 0x51, 0x0e, 0x51, 0x0a, 0x40, 0x0e,
   0x00, 0x00, 0xf0, 0x00, 0x90, 0x00, 0x90, 0x00, 0xf0, 0x01, 0x10, 0x01,
   0x10, 0x01, 0x10, 0x01, 0xf0, 0x01, 0x00, 0x00};
