#define m_width 16
#define m_height 16
static char m_bits[] = {
   0x02, 0x80, 0x06, 0xc0, 0x0a, 0xa0, 0x12, 0x90, 0x22, 0x88, 0x42, 0x84,
   0x82, 0x82, 0x02, 0x81, 0x02, 0x80, 0x02, 0x80, 0x02, 0x80, 0x02, 0x80,
   0x02, 0x80, 0x02, 0x80, 0x02, 0x80, 0x02, 0x80};
