#define name_width 16
#define name_height 16
static unsigned char name_bits[] = {
   0x00, 0x00, 0x00, 0x00, 0x00, 0x00, 0x00, 0x00, 0xb6, 0x0d, 0xb6, 0x0d,
   0x00, 0x00, 0x00, 0x70, 0x00, 0x88, 0x00, 0x88, 0x00, 0x88, 0x00, 0x70,
   0x00, 0x00, 0x00, 0x00, 0x00, 0x00, 0x00, 0x00};
