#define no-error-lines_width 16
#define no-error-lines_height 16
static unsigned char no-error-lines_bits[] = {
   0x20, 0x00, 0x40, 0x80, 0x4c, 0x74, 0x9c, 0x3c, 0xbb, 0x1e, 0x7c, 0x0f,
   0xe0, 0x07, 0xe0, 0x1f, 0xd0, 0x03, 0xe0, 0x07, 0xf0, 0x0e, 0xb8, 0x1c,
   0x9c, 0x3c, 0x4c, 0x34, 0x40, 0x08, 0x40, 0x08};
