#define m_width 16
#define m_height 16
static char m_bits[] = {
   0x00, 0x00, 0xe0, 0x0f, 0x10, 0x10, 0x08, 0x20, 0x04, 0x40, 0x02, 0x80,
   0x02, 0x80, 0x02, 0x80, 0x02, 0x80, 0x02, 0x80, 0x02, 0x80, 0x02, 0x80,
   0x04, 0x40, 0x08, 0x20, 0x10, 0x10, 0xe0, 0x0f};
