#define ordinal-full_width 16
#define ordinal-full_height 16
static char ordinal-full_bits[] = {
   0x00, 0x00, 0xf0, 0x01, 0x0c, 0x06, 0x02, 0x08, 0x02, 0x08, 0x01, 0x10,
   0x01, 0x10, 0x01, 0x10, 0x01, 0x10, 0x01, 0x10, 0x02, 0x08, 0x02, 0xe8,
   0x0c, 0x26, 0xf0, 0x61, 0x00, 0x20, 0x00, 0x20};
