#define ordinal-partial_width 16
#define ordinal-partial_height 16
static char ordinal-partial_bits[] = {
   0x00, 0x00, 0xf0, 0x01, 0x0c, 0x06, 0x02, 0x08, 0x02, 0x08, 0x01, 0x10,
   0x01, 0x10, 0x01, 0x10, 0x01, 0x10, 0x01, 0x10, 0x02, 0x08, 0x02, 0xe8,
   0x0c, 0xa6, 0xf0, 0xe1, 0x00, 0x20, 0x00, 0x20};
