#define orient_width 16
#define orient_height 16
static unsigned char orient_bits[] = {
   0x00, 0x00, 0x00, 0x00, 0x00, 0x3e, 0x00, 0x0e, 0x00, 0x1e, 0x00, 0x1a,
   0x00, 0x32, 0x00, 0x30, 0x00, 0x30, 0x00, 0x30, 0x00, 0x30, 0x00, 0x18,
   0x00, 0x0c, 0xe0, 0x07, 0xe0, 0x03, 0x00, 0x00};
