#define ortho-values_width 16
#define ortho-values_height 16
static unsigned char ortho-values_bits[] = {
   0x10, 0x00, 0x10, 0x00, 0x10, 0x00, 0xff, 0xff, 0x10, 0x00, 0x10, 0x00,
   0x10, 0x00, 0x10, 0x00, 0x10, 0x00, 0x10, 0x00, 0x10, 0x00, 0x10, 0x00,
   0x10, 0x00, 0x10, 0x00, 0x10, 0x00, 0x10, 0x00};
