#define output-all-distances_width 16
#define output-all-distances_height 16
static unsigned char output-all-distances_bits[] = {
   0xdf, 0xf7, 0x00, 0x00, 0xdf, 0xf7, 0x00, 0x00, 0xdf, 0xf7, 0x00, 0x00,
   0xdf, 0xf7, 0x00, 0x00, 0xdf, 0xf7, 0x00, 0x00, 0xdf, 0xf7, 0x00, 0x00,
   0xdf, 0xf7, 0x00, 0x00, 0xdf, 0xf7, 0x00, 0x00};
