#define plot_width 16
#define plot_height 16
static unsigned char plot_bits[] = {
   0x01, 0x00, 0x01, 0x00, 0x01, 0x00, 0x01, 0x60, 0x01, 0x18, 0x01, 0x04,
   0x01, 0x03, 0xe1, 0x00, 0x19, 0x00, 0x05, 0x00, 0x01, 0x70, 0xe1, 0x0f,
   0x3d, 0x00, 0x01, 0x00, 0x01, 0x00, 0xff, 0xff};
