#define plotspec_width 16
#define plotspec_height 16
static unsigned char plotspec_bits[] = {
   0x00, 0x00, 0x7e, 0x7f, 0x7e, 0x7f, 0x66, 0x03, 0x66, 0x03, 0x7e, 0x03,
   0x7e, 0x7f, 0x06, 0x7f, 0x06, 0x60, 0x06, 0x60, 0x06, 0x60, 0x06, 0x7f,
   0x06, 0x7f, 0x00, 0x00, 0x00, 0x00, 0x00, 0x00};
