#define plot-spec_width 16
#define plot-spec_height 16
static unsigned char plot-spec_bits[] = {
   0x00, 0x00, 0x17, 0x77, 0x15, 0x25, 0x17, 0x25, 0x11, 0x25, 0x71, 0x27,
   0x00, 0x00, 0x00, 0x00, 0x00, 0x00, 0x77, 0x77, 0x51, 0x11, 0x77, 0x13,
   0x14, 0x11, 0x17, 0x77, 0x00, 0x00, 0x00, 0x00};
