#define printer_width 16
#define printer_height 16
static char printer_bits[] = {
   0xe0, 0xff, 0x20, 0x80, 0xa0, 0x9f, 0x10, 0x40, 0xd0, 0x43, 0x08, 0x20,
   0xe8, 0x20, 0x08, 0x20, 0xf4, 0x11, 0x02, 0x08, 0x02, 0x08, 0xff, 0x3f,
   0x01, 0x20, 0x01, 0x20, 0x01, 0x20, 0xff, 0x3f};
