#define procrustes_width 16
#define procrustes_height 16
static unsigned char procrustes_bits[] = {
   0x00, 0x00, 0xe0, 0x00, 0xc0, 0x00, 0xa0, 0x00, 0x10, 0x10, 0x08, 0x20,
   0x04, 0x7f, 0x00, 0x20, 0x10, 0x10, 0x20, 0x00, 0x40, 0x00, 0x88, 0x00,
   0x05, 0x05, 0x03, 0x06, 0x07, 0x07, 0x00, 0x00};
