#define quit_width 16
#define quit_height 16
static char quit_bits[] = {
   0x00, 0x24, 0x00, 0x10, 0x00, 0xa4, 0x00, 0x20, 0x00, 0x18, 0x00, 0x45,
   0x80, 0x02, 0x40, 0x04, 0x20, 0x02, 0x10, 0x01, 0x88, 0x00, 0x44, 0x00,
   0x22, 0x00, 0x11, 0x00, 0x0a, 0x00, 0x04, 0x00};
