#define randoms_width 16
#define randoms_height 16
static char randoms_bits[] = {
   0x00, 0x04, 0x00, 0x04, 0x0e, 0x04, 0x08, 0x04, 0x08, 0x14, 0x0e, 0x7c,
   0x08, 0x11, 0x88, 0x12, 0x4e, 0x02, 0x00, 0x02, 0x02, 0x03, 0x02, 0x01,
   0x82, 0x01, 0xc2, 0x06, 0x02, 0x00, 0x02, 0x00};
