#define recover-gridware_width 16
#define recover-gridware_height 16
static unsigned char recover-gridware_bits[] = {
   0x00, 0x00, 0x00, 0x00, 0xef, 0x05, 0x21, 0x04, 0xe1, 0x04, 0x2f, 0x04,
   0x28, 0x04, 0x28, 0x04, 0x2f, 0x04, 0x00, 0x00, 0x00, 0x00, 0x00, 0x00,
   0x00, 0x00, 0x00, 0x00, 0x00, 0x00, 0x00, 0x00};
