#define rotate_width 16
#define rotate_height 16
static unsigned char rotate_bits[] = {
   0x00, 0x00, 0x00, 0x00, 0xc4, 0x07, 0xf4, 0x0f, 0x3c, 0x18, 0x1c, 0x30,
   0x7c, 0x60, 0x00, 0x60, 0x00, 0x60, 0x00, 0x60, 0x00, 0x60, 0x18, 0x30,
   0x30, 0x18, 0xe0, 0x0f, 0xc0, 0x07, 0x00, 0x00};
