#define save-part_width 16
#define save-part_height 16
static unsigned char save-part_bits[] = {
   0xff, 0x00, 0xa5, 0x00, 0xa5, 0x00, 0xbd, 0x00, 0x81, 0x00, 0x81, 0x00,
   0x81, 0x00, 0xff, 0x00, 0x00, 0x00, 0x00, 0x00, 0x77, 0x77, 0x55, 0x25,
   0x57, 0x27, 0x71, 0x23, 0x51, 0x25, 0x51, 0x25};
