#define save_width 16
#define save_height 16
static unsigned char save_bits[] = {
   0x00, 0x00, 0xfe, 0x7f, 0x12, 0x48, 0x12, 0x48, 0x12, 0x48, 0x12, 0x48,
   0x12, 0x48, 0x12, 0x48, 0xf2, 0x4f, 0x02, 0x40, 0x02, 0x40, 0x02, 0x40,
   0x02, 0x40, 0xfe, 0x7f, 0x00, 0x00, 0x00, 0x00};
