#define select_width 16
#define select_height 16
static unsigned char select_bits[] = {
   0x00, 0x00, 0x00, 0x00, 0x00, 0x00, 0x00, 0x00, 0xf8, 0x01, 0xf8, 0x01,
   0xf8, 0x00, 0xf8, 0x01, 0xd8, 0x03, 0x98, 0x07, 0x00, 0x0f, 0x00, 0x1e,
   0x00, 0x3c, 0x00, 0x18, 0x00, 0x00, 0x00, 0x00};
