#define single-all_width 16
#define single-all_height 16
static char single-all_bits[] = {
   0x00, 0x00, 0x00, 0x60, 0x00, 0x30, 0x06, 0x18, 0x06, 0x6c, 0x00, 0x66,
   0x00, 0x03, 0x80, 0x31, 0xc0, 0x30, 0x60, 0x06, 0x30, 0x36, 0x18, 0x30,
   0xcc, 0x00, 0xc6, 0x6c, 0x03, 0x6c, 0x00, 0x00};
