#define small-circle_width 16
#define small-circle_height 16
static unsigned char small-circle_bits[] = {
   0x00, 0x00, 0x00, 0x00, 0x00, 0x00, 0x00, 0x00, 0x00, 0x07, 0x80, 0x08,
   0x40, 0x10, 0x40, 0x10, 0x40, 0x10, 0x80, 0x08, 0x00, 0x07, 0x00, 0x00,
   0x00, 0x00, 0x00, 0x00, 0x00, 0x00, 0x00, 0x00};
