#define random-values_width 16
#define random-values_height 16
static unsigned char random-values_bits[] = {
   0x1d, 0x00, 0x15, 0x41, 0x15, 0x00, 0x1d, 0x00, 0x00, 0x20, 0x00, 0x00,
   0x80, 0x00, 0x00, 0x00, 0x04, 0x00, 0x00, 0x00, 0x00, 0x10, 0x40, 0x00,
   0x02, 0x00, 0x00, 0x04, 0x00, 0x00, 0x00, 0x00};
