#define tick-back_width 16
#define tick-back_height 16
static unsigned char tick-back_bits[] = {
   0xc0, 0x03, 0x30, 0x0c, 0x0c, 0x30, 0x02, 0x48, 0x02, 0x44, 0x01, 0x82,
   0xf9, 0x81, 0x01, 0x80, 0x81, 0x80, 0x42, 0x40, 0xe2, 0x47, 0x44, 0x20,
   0x84, 0x20, 0x18, 0x18, 0xe0, 0x07, 0x00, 0x00};
