#define tick_width 16
#define tick_height 16
static unsigned char tick_bits[] = {
   0xc0, 0x03, 0x30, 0x0c, 0x0c, 0x30, 0x02, 0x48, 0x02, 0x44, 0x01, 0x82,
   0xf9, 0x81, 0x01, 0x80, 0x01, 0x80, 0x02, 0x40, 0x02, 0x40, 0x04, 0x20,
   0x04, 0x20, 0x18, 0x18, 0xe0, 0x07, 0x00, 0x00};
