#define times_width 16
#define times_height 16
static char times_bits[] = {
   0x00, 0x00, 0x00, 0x00, 0x0c, 0x18, 0x18, 0x0c, 0x30, 0x06, 0x60, 0x03,
   0xc0, 0x01, 0xc0, 0x01, 0x60, 0x03, 0x30, 0x06, 0x18, 0x0c, 0x0c, 0x18,
   0x04, 0x10, 0x00, 0x00, 0x00, 0x00, 0x00, 0x00};
