#define translate_width 16
#define translate_height 16
static unsigned char translate_bits[] = {
   0x00, 0x00, 0x00, 0x1e, 0x00, 0x18, 0x00, 0x1e, 0x80, 0x17, 0xe0, 0x11,
   0x78, 0x00, 0x1e, 0xf8, 0x06, 0xe0, 0x00, 0xf8, 0x00, 0x9e, 0x80, 0x87,
   0xe0, 0x01, 0x70, 0x00, 0x10, 0x00, 0x00, 0x00};
