#define vaccine-2_width 16
#define vaccine-2_height 16
static unsigned char vaccine-2_bits[] = {
   0x01, 0x10, 0x01, 0x10, 0x03, 0x10, 0x02, 0x10, 0x02, 0x08, 0x06, 0x08,
   0x04, 0x04, 0x08, 0x04, 0x08, 0x02, 0x18, 0xfa, 0x10, 0x89, 0x10, 0xe1,
   0xa0, 0x38, 0xe0, 0x08, 0x40, 0x08, 0x40, 0xf8};
