#define vaccine-1_width 16
#define vaccine-1_height 16
static unsigned char vaccine-1_bits[] = {
   0x01, 0x10, 0x01, 0x10, 0x03, 0x10, 0x02, 0x10, 0x02, 0x08, 0x06, 0x08,
   0x04, 0x04, 0x08, 0x04, 0x08, 0x02, 0x18, 0x22, 0x10, 0x21, 0x10, 0x21,
   0xa0, 0x20, 0xe0, 0x20, 0x40, 0x20, 0x40, 0x20};
