#define zoom_width 16
#define zoom_height 16
static unsigned char zoom_bits[] = {
   0x00, 0x00, 0xff, 0x7f, 0x01, 0x40, 0x01, 0x40, 0xf9, 0x4f, 0x09, 0x48,
   0x09, 0x48, 0x09, 0x48, 0x09, 0x48, 0x09, 0x48, 0x09, 0x48, 0x09, 0x48,
   0xf9, 0x4f, 0x01, 0x40, 0x01, 0x40, 0xff, 0x7f};
